<svg width="300" height="301" viewBox="0 0 300 301" fill="none" xmlns="http://www.w3.org/2000/svg">
<rect y="0.5" width="300" height="300" rx="24" fill="url(#paint0_linear_74_2218)"/>
<path d="M174.3 165L154.5 112.4C152.9 108.333 151.267 103.167 149.6 96.9C148.867 100.033 148.067 102.933 147.2 105.6C146.333 108.2 145.533 110.5 144.8 112.5L125 165H174.3ZM218.6 219H200.5C198.433 219 196.767 218.5 195.5 217.5C194.233 216.433 193.267 215.133 192.6 213.6L180.6 181.8H118.6L106.6 213.6C106.067 214.933 105.133 216.167 103.8 217.3C102.467 218.433 100.8 219 98.8 219H80.7L137.8 75H161.5L218.6 219Z" fill="white"/>
<defs>
<linearGradient id="paint0_linear_74_2218" x1="2.54237" y1="169.25" x2="302.542" y2="169.25" gradientUnits="userSpaceOnUse">
<stop stop-color="#CE2C4D"/>
<stop offset="1" stop-color="#EC8C69"/>
</linearGradient>
</defs>
</svg>
